<svg width="1440" height="779" viewBox="0 0 1440 779" fill="none" xmlns="http://www.w3.org/2000/svg">
<mask id="mask0_5707_859" style="mask-type:alpha" maskUnits="userSpaceOnUse" x="-1209" y="20" width="2833" height="1088">
<path d="M1623.23 40.0995L1545.93 828.279L1615.18 910.418L-994.329 1107.07C-1128.88 837.043 -1404.65 421.749 -983.852 504.842C-514.678 597.487 73.6911 543.624 349.426 273.762C711.9 -80.9934 1303.16 40.3981 1623.23 40.0995Z" fill="#C4C4C4"/>
</mask>
<g mask="url(#mask0_5707_859)">
<path d="M1185.54 944.143L1751.09 922.913L1789.35 641.353L336.745 280.88C195.832 380.155 -48.8715 569.377 99.616 532.068C248.103 494.759 885.433 791.239 1185.54 944.143Z" fill="#71B340"/>
<path d="M1748.39 314.524L1769.08 865.481C1465.69 558.789 428.253 515.275 -52.5443 531.855L-265.706 -404.445L686.708 -201.761L1748.39 314.524Z" fill="#71B340"/>
<path d="M1548.43 -769.186L1768.86 366.231C1731 513.844 964.003 699.605 334.615 228.772C-294.773 -242.06 -724.544 -260.726 -1164.44 -242.522L1548.43 -769.186Z" fill="#71B340"/>
<path d="M1769.62 -460.677L1792.42 146.706C1753.69 220.569 1254.06 258.352 907.395 -34.775C560.731 -327.902 293.245 -370.569 15.6675 -394.839L1769.62 -460.677Z" fill="#71B340"/>
<path d="M543.912 918.71L1098.7 1030.56L1201.85 765.796L-125.883 75.0629C-286.131 138.564 -568.354 265.195 -415.258 263.71C-262.162 262.224 287.978 699.757 543.912 918.71Z" fill="#71B340"/>
<path d="M-33.3402 518.139L-15.9772 980.7C522.956 1122.81 1519.41 1312.68 1193.75 935.29C868.09 557.904 239.998 499.945 -33.3402 518.139Z" fill="#71B340"/>
</g>
</svg>
